<svg width="100" height="101" viewBox="0 0 100 101" fill="none" xmlns="http://www.w3.org/2000/svg">
<path d="M78.8097 22.9711C85.7096 16.171 98.9095 2.77111 99.3097 2.27111C99.7096 1.87096 100.31 0.97106 99.6095 0.271109C99.0314 -0.23475 97.983 0.356558 97.3329 0.723013C97.0836 0.863638 96.8929 0.97106 96.8097 0.97106C93.2806 4.49987 89.7799 8.04284 86.2809 11.5841L86.2757 11.5892C80.4562 17.4791 74.6415 23.3641 68.7096 29.171C61.8534 35.8275 51.0978 46.7377 44.4066 53.5257L44.3971 53.5353C41.0416 56.9391 38.7103 59.3038 38.4098 59.5712C37.9784 59.9545 36.444 61.5328 34.7757 63.2486C32.964 65.1124 30.9947 67.1381 30.1095 67.9711C29.4386 68.642 28.0514 69.9982 26.3717 71.64C23.7953 74.1586 20.5309 77.3497 18.1095 79.7711C16.4381 81.4425 14.1546 83.7152 11.8326 86.0262L11.7865 86.0724C7.0377 90.7989 2.14366 95.67 2.00962 95.871C1.80552 96.1158 1.55967 96.3607 1.31138 96.6083C0.343121 97.5734 -0.663959 98.5773 0.609478 99.7711C2.00962 101.171 4.50962 97.7711 4.60948 97.5712C7.46202 94.6852 11.0738 91.0294 14.6854 87.3736L14.9161 87.14C22.1158 79.8522 29.2516 72.629 30.3097 71.5712C30.8463 71.068 34.6349 67.2455 40.0521 61.7794L40.0653 61.7662C50.7992 50.9359 67.9151 33.6661 78.8097 22.9711Z" fill="black"/>
<path d="M0.509625 49.671C0.609722 49.7711 1.20958 49.9711 2.30967 48.9711C7.30967 44.7711 20.4095 31.871 27.4095 24.9711C34.1097 18.371 46.5096 5.87121 47.3097 4.97106C48.2096 4.07116 48.5096 3.77111 49.3097 2.77111C50.1097 1.77111 49.9095 1.07116 49.2096 0.671011C48.5096 0.371207 47.1097 0.871207 46.8097 1.47106C46.4095 1.97106 45.8097 2.87096 45.0096 3.77111C37.4095 11.7711 29.4095 19.2711 21.4095 26.7711C14.5096 33.2711 1.60972 46.2711 0.709576 47.3712C-0.190326 48.4711 -0.0904728 49.171 0.509625 49.671Z" fill="black"/>
<path d="M96.0592 53.9625C97.5226 52.3978 98.994 50.8246 99.4098 51.171L99.4745 51.2247C100.023 51.68 100.191 51.8192 99.7096 53.0712C99.2894 54.2474 98.7987 54.7176 98.1778 55.3126C98.0599 55.4257 97.9374 55.5433 97.8097 55.671C97.0096 56.4711 64.3097 89.0712 63.6097 89.4711C62.6097 89.9711 61.5096 90.0712 61.3097 89.671C61.1097 89.171 61.2096 88.7711 62.4098 87.671C63.0997 87.0387 67.525 82.5055 72.4928 77.4166C76.1654 73.6547 80.1344 69.589 83.1097 66.5712C86.0072 63.5929 89.0343 60.7443 92.0348 57.921C92.7621 57.2367 93.4877 56.5538 94.2096 55.871C94.7626 55.3487 95.41 54.6564 96.0592 53.9625Z" fill="black"/>
</svg>
