<svg width="100" height="100" viewBox="0 0 100 100" fill="none" xmlns="http://www.w3.org/2000/svg">
<path d="M30 20C30 25.5228 25.5228 30 20 30C14.4772 30 10 25.5228 10 20C10 14.4772 14.4772 10 20 10C25.5228 10 30 14.4772 30 20Z" fill="black"/>
<path d="M30 50C30 55.5228 25.5228 60 20 60C14.4772 60 10 55.5228 10 50C10 44.4772 14.4772 40 20 40C25.5228 40 30 44.4772 30 50Z" fill="black"/>
<path d="M30 80C30 85.5229 25.5228 90 20 90C14.4772 90 10 85.5229 10 80C10 74.4771 14.4772 70 20 70C25.5228 70 30 74.4771 30 80Z" fill="black"/>
<path d="M90 20C90 25.5228 85.5229 30 80 30C74.4771 30 70 25.5228 70 20C70 14.4772 74.4771 10 80 10C85.5229 10 90 14.4772 90 20Z" fill="black"/>
<path d="M90 50C90 55.5228 85.5229 60 80 60C74.4771 60 70 55.5228 70 50C70 44.4772 74.4771 40 80 40C85.5229 40 90 44.4772 90 50Z" fill="black"/>
<path d="M90 80C90 85.5229 85.5229 90 80 90C74.4771 90 70 85.5229 70 80C70 74.4771 74.4771 70 80 70C85.5229 70 90 74.4771 90 80Z" fill="black"/>
</svg>
