<svg width="101" height="101" viewBox="0 0 101 101" fill="none" xmlns="http://www.w3.org/2000/svg">
<path fill-rule="evenodd" clip-rule="evenodd" d="M51.7293 31.7947L51.8097 31.5708L53.3663 27.3081C53.7945 26.1345 54.2228 24.9597 54.651 23.7822C55.6039 21.1619 56.5567 18.5291 57.5096 15.8708C59.3097 10.5708 59.5096 5.37085 54.9095 1.4707C53.9095 0.670898 51.5096 0.170898 49.3097 0.0708008C47.1095 0.0708008 44.7096 0.470703 43.2096 1.4707C39.9095 3.6709 37.6097 10.0708 40.9095 16.7708C43.3097 21.6709 45.5096 26.6709 47.7096 31.6709C47.7799 31.8467 47.8441 32.0349 47.909 32.2258C48.214 33.1199 48.5382 34.0708 49.6095 34.0708C50.9161 34.0708 51.3517 32.8516 51.7293 31.7947ZM49.2096 2.1709C54.0096 2.1709 57.9095 6.6709 56.7096 11.6709C55.4095 17.4707 53.0096 22.8708 50.6095 28.2708C50.0096 29.7708 49.0096 29.6709 48.3097 28.2708C47.5091 26.6003 46.6725 24.9541 45.8373 23.311C44.2726 20.2327 42.7135 17.1655 41.4095 13.9707C39.4095 8.37085 43.5096 2.27075 49.2096 2.1709Z" fill="black"/>
<path fill-rule="evenodd" clip-rule="evenodd" d="M85.6095 39.6707C92.8097 37.6707 97.4095 41.8708 98.5096 43.4707C99.6095 44.9707 100.81 49.9707 99.4095 52.6707C97.7096 55.5708 96.6095 56.2708 95.1095 57.1707C91.9095 58.9707 88.5096 59.3708 85.0096 58.3708C78.5096 56.4707 72.4095 53.5708 66.4095 50.5708C64.7096 49.7708 64.7096 48.4707 66.5096 47.6707C68.1546 46.9397 69.786 46.1746 71.4178 45.4092L71.4215 45.407C76.0384 43.2417 80.6602 41.0742 85.6095 39.6707ZM87.9095 56.6707C91.7096 56.5708 94.9095 55.2708 96.7096 51.7708C98.1095 48.9707 97.4095 46.2708 95.4095 44.0708C93.2096 41.1707 88.9095 39.8708 85.4095 41.2708C80.7096 43.0708 76.1095 45.1707 71.6095 47.5708C71.5016 47.6248 71.3775 47.6755 71.2474 47.7288C70.6529 47.9717 69.9276 48.2686 70.0096 49.1707C70.1043 49.9302 70.8302 50.239 71.5025 50.5251L71.6095 50.5708C72.9076 51.1018 74.2144 51.6416 75.5247 52.1851C76.4371 52.5635 77.3512 52.9434 78.2652 53.3232C80.4884 54.2473 82.7115 55.1716 84.9095 56.0708C85.9095 56.4707 86.9095 56.7708 87.9095 56.6707Z" fill="black"/>
<path fill-rule="evenodd" clip-rule="evenodd" d="M49.3094 66.8708C50.1095 64.8708 51.7096 64.8708 52.5096 66.8708C53.3602 68.9316 54.2855 70.9712 55.2123 73.0137C57.1187 77.2151 59.0311 81.4297 60.3094 85.8708C61.9095 91.2708 59.7096 95.5708 55.6095 99.0708C53.1095 100.371 50.5096 100.371 47.9095 99.7708C42.8097 97.9709 39.6095 91.8708 41.5096 86.3708C43.1905 81.3281 45.2799 76.4023 47.3766 71.4597L47.378 71.4568C48.025 69.9312 48.6725 68.4038 49.3094 66.8708ZM43.5096 86.9709C42.0096 91.0708 44.4095 95.9709 47.9095 97.4709C53.6095 99.7708 59.2096 95.7708 59.2096 88.9709C59.2096 88.7708 59.2096 88.3708 59.1095 87.9709C57.7267 83.1719 55.4178 78.8359 53.0975 74.4788C52.565 73.4792 52.0321 72.4785 51.5096 71.4709C50.9095 70.1709 50.2096 71.0708 49.8094 71.8708C49.5782 72.4214 49.3446 72.9719 49.1092 73.5227C48.69 74.5037 48.2657 75.4851 47.8407 76.4678L47.8099 76.5396L47.7953 76.5762C46.3077 80.0154 44.8136 83.4695 43.5096 86.9709Z" fill="black"/>
<path fill-rule="evenodd" clip-rule="evenodd" d="M28.7318 45.9624C29.3702 46.2192 30.0091 46.4763 30.648 46.7322C31.0887 46.9087 31.5299 47.0847 31.9713 47.26L33.0094 47.6707C35.0094 48.4707 34.9095 49.7708 32.8094 50.8706C26.3094 54.4707 19.5094 57.5708 12.4095 60.1707C10.3094 60.9707 8.20957 60.5708 6.20957 59.7708C2.00937 58.1707 0.209567 55.4707 0.00937179 50.8706C-0.190579 44.0708 6.70932 38.1707 13.1095 40.1707C18.369 41.7949 23.4491 43.8381 28.5348 45.8833L28.7318 45.9624ZM14.3094 57.7708C19.1095 55.4707 23.9095 53.0708 28.6095 50.6707L28.7257 50.6016C29.0418 50.4148 29.3727 50.2195 29.5287 49.9438C29.5572 49.8936 29.5799 49.8408 29.5956 49.7849C29.6104 49.7317 29.619 49.6758 29.6205 49.6167C29.6214 49.5701 29.618 49.5215 29.6095 49.4707C29.6095 48.6279 28.9078 48.3989 28.326 48.209L28.2096 48.1707C23.5094 46.2708 18.7096 44.3706 13.9095 42.5708C10.4095 41.2708 7.20957 41.9707 4.70957 44.7708C2.50937 47.1707 2.00937 49.9707 3.30942 52.9707C4.80942 56.4707 7.70957 57.8706 11.5094 58.3706C11.7984 58.2983 12.1266 58.2522 12.4703 58.2039C13.0782 58.1184 13.7347 58.0261 14.3094 57.7708Z" fill="black"/>
<path fill-rule="evenodd" clip-rule="evenodd" d="M36.3097 60.7708C34.1288 61.9363 31.9337 63.0879 29.7352 64.2412C26.0868 66.155 22.4286 68.074 18.8097 70.0708C15.4095 71.9707 13.8094 75.1707 13.6095 78.3706C13.5096 83.8706 16.4095 87.6707 20.9095 88.6707C25.5096 89.7708 30.6095 87.2708 32.6095 82.7708C34.6771 78.1191 36.2538 73.2498 37.8228 68.4038L37.8236 68.4009C38.3795 66.6843 38.9342 64.9707 39.5096 63.2708C39.8097 62.3706 40.0096 61.4707 39.1095 60.6707C38.2096 59.8706 37.2096 60.2708 36.3097 60.7708ZM36.1095 65.9707C35.6776 67.3174 35.2713 68.677 34.8648 70.0381C33.6715 74.0334 32.4742 78.0413 30.6095 81.7708C28.0096 87.0708 21.0096 87.9707 17.6095 83.6707C16.3094 82.0708 15.8097 80.2708 15.9095 78.2708C16.0096 75.1707 17.2096 72.5708 20.0096 71.1707C23.0103 69.7327 26.0497 68.3735 29.0792 67.0188L29.0873 67.0151L29.1283 66.9968C29.8143 66.6899 30.4996 66.3835 31.1839 66.0764C31.7752 65.8113 32.3656 65.5454 32.9549 65.2788C33.4742 65.0437 33.9925 64.8079 34.5096 64.5708C36.0096 63.8706 36.6095 64.3706 36.1095 65.9707Z" fill="black"/>
<path fill-rule="evenodd" clip-rule="evenodd" d="M30.2638 36.7764C25.9605 34.8962 21.6866 33.0288 17.5096 30.8706C10.7096 27.3706 9.90952 18.6707 15.7096 14.3706C17.4095 13.0708 19.3097 12.7708 21.4095 12.6707C25.5096 12.5708 28.8094 14.3706 30.6095 17.8706C33.1854 22.7729 35.485 27.8132 37.795 32.877C38.2652 33.9077 38.7359 34.9392 39.2096 35.9707C39.7096 37.0708 40.2096 38.1707 39.0096 39.2708C37.9183 40.1633 36.8272 39.6785 35.9315 39.2803L35.9095 39.2708C35.5289 39.0989 35.1483 38.9282 34.7679 38.7583C34.2098 38.5093 33.6517 38.2622 33.0938 38.0164C32.6446 37.8184 32.1954 37.6213 31.7467 37.4248C31.252 37.208 30.7577 36.9922 30.2638 36.7764ZM28.5096 17.6707C26.3094 14.9707 22.1095 13.7708 18.8094 14.8706C16.1095 15.7708 14.3097 18.4707 14.2096 22.6707C14.2096 25.3706 15.6095 28.2708 18.6095 29.6707C22.0787 31.3032 25.5941 32.6582 29.1244 34.0188C30.026 34.3662 30.9288 34.7141 31.8319 35.0671C32.5909 35.3638 33.3502 35.6641 34.1095 35.9707C34.4229 36.0752 34.7362 36.1797 35.0353 36.1987C35.3089 36.2161 35.5707 36.1619 35.8094 35.9707C36.5096 35.3706 36.0096 34.6707 35.8094 34.0708C34.3094 30.0708 32.7096 26.1707 31.1095 22.2708C30.4095 20.6707 29.6095 19.0708 28.5096 17.6707Z" fill="black"/>
<path fill-rule="evenodd" clip-rule="evenodd" d="M60.4095 38.3708C61.1095 38.9707 62.0094 38.8708 62.8094 38.5708C64.0094 38.0708 65.3094 37.5708 66.5094 36.9707C67.1749 36.6682 67.8414 36.3674 68.5089 36.0662L68.6422 36.0061L68.6444 36.0046C73.4491 33.8372 78.2811 31.6575 82.8094 28.8708C86.5094 26.5708 88.0094 21.7708 86.7093 17.6707C85.4095 13.7708 82.2093 11.4707 78.1095 11.4707C74.1095 11.3708 70.9095 13.1707 69.0094 16.4707C65.3094 22.6707 62.5094 29.2708 60.0094 35.9707C59.6095 36.8708 59.6095 37.7708 60.4095 38.3708ZM63.2093 33.3708C63.7174 32.137 64.2196 30.8972 64.723 29.6543L64.7296 29.6382C66.305 25.7498 67.8924 21.8315 69.7093 17.9707C71.4095 14.4707 75.6095 12.9707 79.2093 13.9707C82.4095 14.8708 84.4095 17.7708 84.5094 21.1707C84.5094 24.6707 83.0094 27.4707 79.8094 28.9707C76.3016 30.5784 72.6869 32.0261 69.0826 33.4695C67.755 34.0012 66.4286 34.5325 65.1095 35.0708C64.5094 35.2708 63.8094 35.7708 63.2093 35.1707C62.6095 34.7708 62.9095 33.9707 63.2093 33.3708Z" fill="black"/>
<path fill-rule="evenodd" clip-rule="evenodd" d="M71.1217 62.8416C73.9586 64.082 76.8014 65.325 79.6097 66.6707C84.3097 68.8706 87.3097 72.3706 87.4098 76.9707C87.4098 84.1707 81.2096 88.3706 75.1097 86.1707C71.0096 84.6707 68.7096 81.6707 67.1097 77.8706C66.1581 75.4666 65.2315 73.0625 64.305 70.6584C63.3814 68.2627 62.4579 65.8667 61.5096 63.4707C61.0096 62.2708 60.6097 60.9707 61.8097 59.9707C62.7938 59.0759 63.7782 59.542 64.7625 60.0081C64.8783 60.063 64.994 60.1179 65.1097 60.1707C67.1012 61.0835 69.11 61.9619 71.1217 62.8416ZM70.2096 79.5708C71.7096 83.2708 76.4098 85.5708 80.2096 84.7708C83.2096 84.0708 85.4095 81.0708 85.5096 77.0708C85.3097 74.0708 84.1097 71.1707 80.8097 69.4707C76.3097 67.1707 71.6097 65.1707 66.8097 63.2708C66.7291 63.2305 66.6468 63.1865 66.5631 63.1418C66.0235 62.8545 65.429 62.5378 64.9098 62.9707C64.2096 63.5708 64.6097 64.3706 64.9098 65.0708C65.5467 66.8049 66.1585 68.5264 66.7677 70.2397C67.8795 73.3682 68.982 76.4695 70.2096 79.5708Z" fill="black"/>
</svg>
