<svg width="102" height="101" viewBox="0 0 102 101" fill="none" xmlns="http://www.w3.org/2000/svg">
<path d="M95.3093 92.4709C94.5573 91.6653 92.6799 89.8494 90.5915 87.8296C88.7922 86.0896 86.8366 84.1982 85.3093 82.6709C82.0415 79.3528 78.78 76.0347 75.52 72.7183L75.479 72.6765C65.7839 62.8132 56.1025 52.9639 46.3093 43.1709C42.6093 39.4707 38.8593 35.8457 35.1093 32.2207C31.3593 28.5957 27.6093 24.9707 23.9094 21.2708C19.6408 17.0691 15.4614 12.8674 11.2819 8.66577C9.19477 6.56763 7.10762 4.46924 5.00923 2.37085C4.84541 2.20703 4.67085 2.04322 4.49263 1.87598L4.39253 1.78199C4.05806 1.46704 3.71504 1.13745 3.40937 0.770755C2.80928 0.170901 2.10933 -0.329099 1.40937 0.270755C0.609326 0.870853 0.909375 1.77076 1.40937 2.5708L1.51875 2.7356C1.66304 2.95386 1.8 3.16089 1.95552 3.36695C2.09321 3.54932 2.2458 3.73096 2.4311 3.91919C2.54365 4.03345 2.66841 4.15015 2.80928 4.27075C2.91523 4.37671 3.22114 4.65747 3.66914 5.06885L3.68013 5.0791C4.50093 5.83252 5.79292 7.0188 7.20918 8.37085C8.70088 9.86231 10.404 11.5918 12.0603 13.2739L12.0983 13.3127C13.6489 14.8872 15.1569 16.4185 16.4094 17.6709C29.5468 30.6106 42.684 43.6482 55.725 56.5903L56.2092 57.0708C60.3408 61.1272 64.4157 65.2961 68.4768 69.4509L68.4885 69.4634C69.8298 70.8357 71.1696 72.2063 72.5092 73.5708C73.4094 73.9709 86.0092 87.2708 86.0092 87.2708C87.1462 88.2454 89.2719 90.4724 90.1918 91.436C90.4047 91.6592 90.5529 91.8145 90.6093 91.8708C90.7092 91.9709 91.5092 92.6709 92.2092 93.3708C92.8093 93.9709 93.4094 94.6709 93.6093 94.9709C94.1093 95.5708 97.2092 98.4709 97.5092 98.6709C97.8044 98.8184 98.0908 99.0706 98.3789 99.3242L98.3811 99.3264C99.0683 99.9319 99.7644 100.545 100.609 99.7708C101.552 98.9062 100.519 97.7947 99.8874 97.1157C99.7944 97.0156 99.7102 96.9248 99.6423 96.8459C99.5847 96.7788 99.5388 96.72 99.5092 96.6709C99.2954 96.3499 98.5085 95.5994 97.6086 94.741L97.6071 94.7395C97.2392 94.3884 96.8522 94.0193 96.478 93.6543C96.0578 93.2444 95.6533 92.8396 95.3093 92.4709Z" fill="black"/>
<path d="M49.7092 97.8708C46.9094 94.8708 44.2092 91.9709 41.3093 89.071L2.90937 50.971C2.60933 50.6709 1.80928 50.071 1.20918 50.571C0.609326 50.971 1.50923 53.1709 2.20918 53.8709C2.2751 53.9368 2.48042 54.1326 2.80098 54.438C3.94185 55.5254 6.54268 58.0044 9.50923 60.971C11.0905 62.5522 12.7912 64.2747 14.5109 66.0164C18.0119 69.562 21.5927 73.1885 24.4094 75.8708C32.4094 83.6709 40.3093 91.4709 48.2092 99.3708C48.9094 100.071 49.7092 100.371 50.4094 99.571C51.0517 99.0088 50.5332 98.5754 50.0451 98.1677L50.0393 98.1626C49.9216 98.0642 49.8059 97.9675 49.7092 97.8708Z" fill="black"/>
<path d="M57.5576 6.34937C55.5739 4.24439 54.0466 2.62378 53.7094 2.37085C52.9094 1.771 52.1093 1.07105 53.0095 0.47095C53.5095 -0.0290497 54.4094 0.270999 55.3093 0.870853C56.0092 1.271 56.4094 1.6709 57.3093 2.6709C57.3662 2.72779 57.509 2.88501 57.7338 3.13257C58.6965 4.1919 61.1616 6.9043 64.8093 10.471C65.5849 11.2466 66.3605 12.0525 67.1596 12.8826C68.4209 14.1926 69.7402 15.563 71.2094 16.971C73.7998 19.4949 76.5886 22.1731 79.3818 24.8555C84.9995 30.2507 90.635 35.6631 94.7094 39.8709C95.4021 40.7024 96.6706 41.6775 97.6508 42.4312C98.0856 42.7654 98.4636 43.0559 98.7094 43.271C99.5095 43.971 101.809 46.6709 101.009 47.271C100.209 47.8709 99.1093 46.471 98.3093 45.771C95.3093 42.971 92.4094 40.1709 89.4094 37.471C83.091 31.7922 77.0285 25.8577 70.966 19.9231C69.4484 18.4377 67.9309 16.9524 66.4094 15.471C63.864 13.041 60.2807 9.23902 57.5576 6.34937Z" fill="black"/>
</svg>
