<svg width="101" height="100" viewBox="0 0 101 100" fill="none" xmlns="http://www.w3.org/2000/svg">
<path d="M93.7095 91.4708C86.1095 84.1708 79.2095 76.1708 71.8095 68.6708C69.0095 65.7708 69.1095 65.6708 71.1095 62.2708C75.9095 53.8708 75.9095 45.2708 70.9095 36.9708C69.3095 34.3708 69.8095 33.0708 71.6095 31.1708C80.8095 21.7708 89.9095 12.2708 99.1095 2.77079C99.7095 2.17079 100.41 1.47079 99.7095 0.67079C99.0095 -0.22921 98.1095 -0.0292097 97.4095 0.77079C95.0095 3.27079 92.7095 5.77079 90.3095 8.17079C83.4095 15.0708 76.8095 22.2708 69.7095 29.0708C67.7095 30.9708 66.2095 31.3708 63.6095 29.8708C54.0095 24.5708 44.5095 25.1708 35.4095 31.2708C33.7095 32.4708 32.7095 32.5708 31.3095 30.9708C22.4095 21.1708 13.4095 11.3708 4.5095 1.57079C3.9095 0.87079 3.40949 0.17079 2.30949 0.27079C1.70949 0.27079 0.909507 0.0707903 0.609507 0.97079C0.309507 1.97079 1.00951 2.47079 1.60951 3.07079C10.9095 12.9708 20.2095 22.9708 29.5095 32.8708C30.8095 34.2708 31.2095 35.3708 30.1095 37.1708C24.5095 46.1708 24.8095 55.2708 30.8095 63.9708C31.9095 65.5708 31.9095 66.5708 30.5095 67.9708C23.0095 75.2708 15.5095 82.5708 8.10951 89.8708C5.90951 92.0708 3.60949 94.2708 1.40949 96.5708C0.609495 97.3708 -0.290487 98.6708 0.709513 99.5708C1.80951 100.571 2.90951 99.4708 3.70951 98.6708C13.1095 89.0708 22.8095 79.7708 32.4095 70.3708C34.0095 68.7708 35.2095 68.7708 37.1095 69.9708C46.2095 75.8708 56.2095 75.6708 65.0095 69.1708C66.9095 67.7708 67.9095 67.9708 69.5095 69.5708C75.6095 76.0708 82.0095 82.3708 88.1095 88.9708C91.1095 92.2708 95.0095 94.8708 97.1095 99.0708C97.5095 99.8708 98.7095 100.171 99.5095 99.5708C100.409 98.8708 100.309 97.7708 99.5095 96.9708C97.4095 95.2708 95.6095 93.3708 93.7095 91.4708ZM50.9095 71.5708C37.9095 71.5708 28.6095 61.7708 28.6095 49.9708C28.5095 38.1708 38.7095 28.4708 50.8095 28.7708C63.6095 29.0708 72.2095 38.1708 71.9095 50.3708C71.8095 62.0708 62.2095 71.5708 50.9095 71.5708Z" fill="black"/>
</svg>
