<svg width="101" height="101" viewBox="0 0 101 101" fill="none" xmlns="http://www.w3.org/2000/svg">
<path fill-rule="evenodd" clip-rule="evenodd" d="M50.4097 34.6709C49.5098 34.5711 49.2097 33.8709 48.9097 33.1709C48.1219 31.2618 47.2971 29.3804 46.4749 27.5044L46.4705 27.4942C44.5804 23.1822 42.7024 18.8977 41.3096 14.3709C40.9097 13.1709 40.7097 11.971 40.8096 10.6709C40.6096 1.47099 48.5098 -1.22896 54.2097 0.87089C58.4097 2.37089 61.2097 6.97099 60.2097 11.971C58.6096 19.471 55.6096 26.3709 52.3096 33.271C51.9097 34.0711 51.4097 34.771 50.4097 34.6709ZM58.0098 11.471C59.0098 6.77104 55.6096 2.77104 50.9097 2.67094C46.0098 2.57109 42.0098 8.47099 43.5098 14.0711C44.856 19.0716 47.127 23.6099 49.4336 28.2193L49.7097 28.771C50.3096 29.971 51.0098 30.1709 51.5098 28.771C52.2776 26.544 53.2224 24.376 54.1687 22.2046C55.687 18.721 57.209 15.2288 58.0098 11.471Z" fill="black"/>
<path d="M99.8096 96.7708C95.4095 91.971 85.6094 81.6709 84.8096 80.8709C84.1094 80.1709 76.2095 72.3709 71.9095 68.1709C66.2244 62.5855 60.4397 57.0003 54.6548 51.4148L54.6534 51.4134L54.6094 51.3709C53.7095 50.471 53.2095 49.6709 54.3096 48.471C58.9283 43.0823 64.0818 38.188 69.2161 33.3121L69.2198 33.3084L69.2344 33.2945L69.2403 33.2886C72.1016 30.5711 74.9568 27.8594 77.7095 25.0708L77.7469 25.0313C82.8345 19.6446 87.9221 14.2579 93.1094 8.97099C95.0096 6.97099 97.4095 4.97099 99.7095 3.27079C100.409 2.77079 101.409 1.77079 100.51 0.770793C99.6421 -0.270223 99.0003 0.419718 98.3885 1.07792C98.295 1.17851 98.2022 1.27812 98.1094 1.37089C97.2842 2.19609 96.3457 3.00273 95.4004 3.81498C94.1697 4.87235 92.9275 5.93974 91.9095 7.07084C84.0974 15.5079 75.8948 23.5542 67.6922 31.6006C62.7698 36.4292 57.8474 41.2579 53.0096 46.1709C51.6094 47.5708 50.7095 47.6709 49.3096 46.2708C43.3096 40.0708 37.0096 34.1709 30.6094 28.3709C24.669 22.8977 18.8177 16.979 13.0257 11.1202C10.1402 8.20121 7.26932 5.2974 4.40945 2.47099C4.33816 2.3997 4.26346 2.32304 4.18631 2.24296C4.11014 2.1641 4.03152 2.08158 3.95096 1.99687C3.08304 1.08695 1.98318 -0.0661215 1.3096 0.270793C0.509552 0.670939 1.60941 2.77079 2.50955 3.67094C2.98856 4.14994 3.51688 4.6287 4.06644 5.10771C4.48099 5.46879 4.9075 5.82987 5.33426 6.19096C6.46854 7.15092 7.60281 8.11088 8.50955 9.07084C10.909 11.5372 13.2642 14.0476 15.6192 16.5581L15.6346 16.5735C20.3411 21.5911 25.0474 26.6087 30.1094 31.2708C32.9607 33.9219 35.7869 36.6228 38.6131 39.324C41.4368 42.023 44.2605 44.722 47.1094 47.3709C48.8096 48.971 49.1094 50.2708 47.1094 51.8709C46.2725 52.5286 45.5069 53.3294 44.7273 54.1448L44.7222 54.1499C44.1995 54.6966 43.6707 55.2498 43.1094 55.7708C34.0379 64.1448 25.4893 73.0418 16.9534 81.9258L16.9226 81.9573C12.0132 87.0669 7.10818 92.1722 2.10941 97.1709C1.2095 98.0708 0.509552 98.8709 1.60941 99.8709C2.3096 100.571 3.50955 99.471 4.10941 98.8709C7.60941 95.271 11.0845 91.596 14.5596 87.9209L14.586 87.8931L14.5889 87.8902C18.0542 84.2254 21.5193 80.5608 25.0096 76.971L47.8096 53.8709C50.3096 51.3709 50.4095 51.3709 53.0096 53.6709C54.9475 55.4214 56.8074 57.2891 58.6624 59.1519L58.6822 59.1717C59.7879 60.282 60.8916 61.3904 62.0096 62.471C67.5742 67.8721 73.0498 73.3623 78.5171 78.8445C83.0711 83.4112 87.6197 87.972 92.2095 92.471C92.9624 93.1961 93.8867 94.1702 94.8455 95.1805C97.324 97.7928 100.033 100.648 100.609 100.071C101.51 99.3709 100.609 97.6709 99.8096 96.7708Z" fill="black"/>
<path fill-rule="evenodd" clip-rule="evenodd" d="M52.3096 67.771C51.9095 66.971 51.5096 66.271 50.5096 66.271C49.4095 66.271 49.0096 67.0711 48.6094 67.971L48.5962 67.9995C46.7007 71.8902 44.8052 75.7806 43.0096 79.771C42.8033 80.2527 42.5879 80.7344 42.3723 81.2166C41.335 83.5374 40.2923 85.8699 40.2095 88.271C40.7095 95.6709 45.7095 102.371 55.1094 99.771C59.9095 98.3711 62.4095 92.971 60.4095 86.771C58.4119 80.7781 55.7549 75.1153 53.1118 69.4829L52.3096 67.771ZM55.3096 96.471C53.3096 97.971 51.1094 98.3711 48.7095 97.271C45.5096 95.8711 43.0096 92.0711 43.1094 87.5711C43.1805 86.1521 43.9058 84.4815 44.6783 82.7019L44.6826 82.6917C44.9187 82.1477 45.1592 81.5938 45.3867 81.0335C45.4627 80.8465 45.5371 80.659 45.6094 80.471C46.7095 77.6709 48.0096 74.971 49.3096 72.271C49.3457 72.1985 49.3792 72.1228 49.4109 72.0462L49.4842 71.8658C49.6848 71.3638 49.8816 70.8711 50.5096 70.8711C51.2095 70.8711 51.4095 71.5711 51.6094 72.0711C52.4295 73.8604 53.2635 75.6358 54.0957 77.4075L54.1016 77.4192C55.5003 80.3968 56.8943 83.3643 58.2095 86.3711C59.7095 90.0711 58.4095 94.1709 55.3096 96.471Z" fill="black"/>
<path fill-rule="evenodd" clip-rule="evenodd" d="M11.8096 59.1712C13.783 59.4285 15.8299 58.5816 17.9505 57.7044C18.3015 57.5591 18.6546 57.4131 19.0096 57.271C19.5918 57.0581 20.1741 56.847 20.7559 56.6358L20.9368 56.5699C25.49 54.917 30.0152 53.2745 34.3096 51.1712C36.3096 50.1712 36.3096 48.8711 34.4097 47.771C33.9097 47.471 33.4097 47.1712 32.8096 46.971C31.563 46.4981 30.3118 46.0252 29.0579 45.5513C24.4781 43.8206 19.8631 42.0767 15.3096 40.271C11.7095 38.8711 8.10965 39.0711 4.8096 41.1712C1.7095 43.1712 0.109649 47.971 1.2095 51.271C3.00955 56.5711 6.10965 58.971 11.8096 59.1712ZM12.3096 41.8711C14.9317 41.9366 17.1673 43.0765 19.4102 44.2203C20.5889 44.8213 21.7696 45.4234 23.0096 45.8711C25.1096 46.6712 27.1096 47.6712 29.2095 48.6712C30.2095 49.1712 30.8096 49.971 29.4097 50.471C27.378 51.2762 25.3899 52.1692 23.4068 53.0603L23.4009 53.0633C20.2132 54.4961 17.0374 55.9234 13.7095 56.971C13.305 57.1331 12.7693 57.0984 12.4737 57.0794C12.4041 57.0747 12.3477 57.0711 12.3096 57.0711C7.50955 56.971 3.50955 53.271 3.60965 49.3711C3.7095 45.0711 7.60965 41.6712 12.3096 41.8711Z" fill="black"/>
<path fill-rule="evenodd" clip-rule="evenodd" d="M95.2097 41.1714C95.3098 41.1963 95.4097 41.2212 95.5096 41.271C101.51 43.971 102.11 50.8711 99.4095 55.5711C97.9095 58.471 94.8096 59.471 91.6096 59.6712C91.2095 59.6712 90.7845 59.646 90.3594 59.6209C89.9344 59.596 89.5096 59.5711 89.1096 59.5711C89.0096 59.471 88.9095 59.471 88.7095 59.471C88.4095 59.1712 88.0096 59.1712 87.6096 59.271C84.5581 58.1705 81.5066 57.045 78.4554 55.9195C75.4068 54.795 72.3582 53.6705 69.3096 52.5711L69.1707 52.5286C67.9051 52.1414 66.5096 51.7144 66.5096 50.1712C66.5096 48.9688 67.6158 48.5039 68.625 48.0801C68.791 48.0103 68.9544 47.9417 69.1096 47.8711C75.0096 44.971 86.1096 41.0711 87.4095 40.771C88.7095 40.471 92.4095 40.5711 94.9095 41.0711C95.0096 41.1211 95.1096 41.1463 95.2097 41.1714ZM87.0096 57.1712C89.9095 58.3711 92.9095 57.8711 95.6096 56.1712C99.9095 53.3711 100.01 47.771 95.8096 44.971C93.9095 43.6712 92.3096 42.8711 89.7095 42.8711C87.1096 42.8711 86.8096 42.8711 85.6096 43.471L72.7095 49.471C72.2095 49.6712 71.6096 49.971 71.6096 50.3711C71.5213 50.9883 72.1331 51.2168 72.6219 51.3992C72.6873 51.4236 72.7505 51.4473 72.8096 51.471C76.1419 52.5591 79.3355 53.9248 82.5161 55.2847C84.0125 55.9246 85.5059 56.5633 87.0096 57.1712Z" fill="black"/>
</svg>
