<svg width="72" height="72" viewBox="0 0 72 72" fill="none" xmlns="http://www.w3.org/2000/svg">
<path d="M67.7771 17.208C62.7343 8.352 54.1615 2.808 44.5082 1.152C41.7707 0.36 38.9611 0 36.0075 0C32.8378 0 29.8121 0.432 26.8585 1.296C23.9048 2.088 21.0953 3.24 18.3578 4.824C15.6203 6.408 13.1709 8.352 11.0818 10.584C8.92057 12.744 7.04753 15.192 5.46266 18C3.80574 20.88 2.65311 23.976 1.86067 27.072C-1.165 36.144 -0.588681 46.08 4.23798 54.648C8.92057 62.856 16.6288 68.256 25.3456 70.272C28.6595 71.424 32.2614 72 35.9355 72C39.1052 72 42.1309 71.568 45.0845 70.704C48.0382 69.912 50.8477 68.76 53.5852 67.176C56.3227 65.592 58.7721 63.648 60.8612 61.416C63.0224 59.256 64.8955 56.808 66.4803 54C68.1373 51.048 69.3619 47.88 70.0823 44.712C73.18 35.712 72.6037 25.704 67.7771 17.208ZM63.3106 42.984C62.7343 45.504 61.7257 48.024 60.429 50.4C59.1323 52.632 57.6194 54.648 55.8905 56.376C54.2336 58.104 52.2885 59.688 50.0553 60.984C47.8941 62.28 45.5888 63.216 43.2115 63.864C40.9783 64.44 38.5289 64.8 36.0075 64.8C33.0539 64.8 30.1723 64.296 27.5068 63.432C20.519 61.776 14.3235 57.456 10.5775 50.904C6.68733 44.064 6.2551 36.144 8.63241 28.872C9.20873 26.352 10.1452 23.904 11.514 21.6C12.8107 19.368 14.3235 17.352 16.0525 15.624C17.7094 13.896 19.6545 12.312 21.8877 11.016C24.0489 9.72 26.3542 8.784 28.7315 8.136C31.0368 7.56 33.4861 7.2 36.0075 7.2C38.3848 7.2 40.6901 7.488 42.8513 8.064C50.5595 9.36 57.4033 13.824 61.4376 20.952C65.3277 27.792 65.7599 35.712 63.3106 42.984Z" fill="black"/>
<path d="M41.1225 15.048C39.4656 14.616 37.7366 14.4 36.0077 14.4C34.1346 14.4 32.2616 14.688 30.5326 15.192C28.8037 15.624 27.0747 16.344 25.4178 17.352C23.7609 18.288 22.3201 19.512 21.0234 20.808C19.7267 22.104 18.574 23.616 17.6375 25.272C16.629 27 15.9086 28.872 15.4763 30.744C13.6753 36.144 14.0355 42.12 16.9171 47.232C19.7267 52.128 24.3372 55.368 29.5961 56.592C31.6132 57.24 33.7744 57.6 35.9356 57.6C37.8086 57.6 39.6817 57.312 41.4106 56.808C43.1396 56.376 44.8685 55.656 46.5255 54.648C48.1824 53.712 49.6232 52.488 50.9199 51.192C52.2166 49.896 53.3692 48.384 54.3058 46.728C55.3143 44.928 56.0347 43.056 56.4669 41.184C58.2679 35.784 57.9077 29.808 55.0261 24.624C52.0725 19.368 46.8857 16.056 41.1225 15.048ZM49.6952 39.456C49.407 40.752 48.9028 41.976 48.2544 43.2C47.6061 44.352 46.8857 45.288 46.0212 46.152C45.1567 47.016 44.2202 47.808 43.1396 48.456C42.059 49.104 40.9064 49.536 39.7537 49.896C38.457 50.256 37.2323 50.4 36.0077 50.4C34.4948 50.4 33.1261 50.184 31.7573 49.68C28.2274 48.888 25.1297 46.728 23.3287 43.416C21.3836 40.032 21.1675 36 22.3921 32.4C22.6803 31.176 23.1846 29.952 23.8329 28.728C24.4813 27.648 25.2017 26.64 26.0662 25.776C26.9306 24.912 27.8672 24.12 28.9478 23.472C30.0284 22.824 31.181 22.392 32.3336 22.032C33.4863 21.672 34.7109 21.528 36.0077 21.528C37.1603 21.528 38.3129 21.672 39.3935 21.96C43.2116 22.608 46.6695 24.84 48.6866 28.368C50.6317 31.896 50.8478 35.856 49.6952 39.456Z" fill="black"/>
<path d="M37.6645 29.016C37.1602 28.872 36.5839 28.8 36.0076 28.8C35.3592 28.8 34.7829 28.872 34.2066 29.088C33.6303 29.232 33.054 29.448 32.4776 29.808C31.9013 30.096 31.4691 30.528 31.0368 30.96C30.6046 31.392 30.2444 31.896 29.8842 32.472C29.524 33.048 29.3079 33.696 29.1638 34.272C28.5875 36.072 28.6595 38.088 29.6681 39.816C30.6046 41.472 32.1174 42.552 33.9184 42.912C34.5668 43.128 35.2872 43.272 36.0076 43.272C36.656 43.272 37.2323 43.2 37.8086 42.984C38.3849 42.84 38.9612 42.624 39.5375 42.264C40.1139 41.976 40.5461 41.544 40.9783 41.112C41.4106 40.68 41.7708 40.176 42.131 39.6C42.4912 39.024 42.7073 38.376 42.8514 37.728C43.4997 35.928 43.3556 33.912 42.4191 32.256C41.3385 30.456 39.6096 29.376 37.6645 29.016Z" fill="black"/>
</svg>
