<svg width="100" height="101" viewBox="0 0 100 101" fill="none" xmlns="http://www.w3.org/2000/svg">
<path d="M93.1072 41.2586C95.0025 43.1382 96.8973 45.0176 98.8094 46.8709C100.51 48.3709 100.309 51.6707 98.6094 53.3709C94.7513 57.1959 90.8821 61.0208 87.0093 64.8494C79.2379 72.5318 71.4512 80.2291 63.7095 87.9708C62.6465 89.0338 61.5945 90.1187 60.5389 91.2076C58.4168 93.3966 56.2801 95.6007 54.0096 97.6707C53.5096 98.1707 50.6094 100.571 49.5096 100.171C48.4288 99.8382 49.0067 99.2293 49.5198 98.6885C49.6238 98.5789 49.7252 98.472 49.8094 98.3709C55.6094 91.5709 62.0096 85.3709 68.5096 79.2708C68.9886 78.817 69.4739 78.3758 69.9576 77.9361C71.3924 76.6321 72.8128 75.3414 74.0096 73.7708C77.7452 70.1019 81.4361 66.3885 85.1124 62.69C86.9473 60.8441 88.7784 59.0018 90.6094 57.1707C91.0645 56.741 91.5196 56.305 91.9761 55.8673C93.326 54.5736 94.6898 53.2664 96.1094 52.0709C97.9095 50.5709 98.1094 49.5709 96.3094 47.8709C91.7005 43.5611 87.1631 39.2156 82.6334 34.8773C79.5953 31.9676 76.5606 29.0611 73.5096 26.1707C66.9095 19.9708 58.2095 10.6707 52.3094 3.77082C51.8907 3.27375 51.5062 2.85187 51.1758 2.48908C50.2435 1.46589 49.7403 0.913884 50.1094 0.470769C50.7095 -0.32928 52.0096 0.470769 53.1094 1.37092C53.2969 1.53498 54.3856 2.70466 56.0469 4.48957C61.473 10.3189 73.0081 22.7117 79.2095 28.0709C84.0091 32.2352 88.5596 36.7484 93.1072 41.2586Z" fill="black"/>
<path d="M43.9095 42.9207C45.6343 44.6207 47.3594 46.3209 49.1094 47.9708C49.8096 48.6707 50.3096 49.3707 50.4095 50.2708C45.7095 55.8707 40.6094 60.9708 35.5096 66.0706C31.3773 70.1636 27.338 74.3651 23.2938 78.5714C17.0621 85.0528 10.8196 91.5455 4.20953 97.6707C4.05255 97.8277 3.88947 98.0152 3.71979 98.2103C2.91681 99.1331 1.96539 100.227 0.809631 99.0706C-0.294128 97.9671 0.836487 96.9356 1.75372 96.0985C1.91705 95.9495 2.07355 95.8067 2.20953 95.6707C7.13116 91.0687 11.7259 86.14 16.3333 81.1976C18.9344 78.4075 21.5394 75.6131 24.2095 72.8707C28.336 68.6192 32.5797 64.4459 36.8184 60.2774C39.3594 57.7786 41.8985 55.2818 44.4095 52.7708C46.8096 50.3707 46.7095 50.2708 44.3096 47.8707C42.4922 46.0977 40.67 44.3297 38.8472 42.5611C32.4454 36.3497 26.0367 30.1314 19.8096 23.6707C17.7425 21.5035 15.7198 19.2918 13.6971 17.0804C9.65314 12.6588 5.60919 8.23713 1.20953 4.17072C0.409485 3.37067 -0.390564 2.17072 0.209534 1.27082C0.800842 0.383855 1.55573 0.807927 2.27301 1.21052C2.52618 1.35285 2.77472 1.4925 3.00958 1.57062C7.67633 6.23737 12.2371 11.0098 16.7979 15.7823C23.9649 23.282 31.1319 30.7818 38.7095 37.8707C40.4595 39.5206 42.1846 41.2208 43.9095 42.9207Z" fill="black"/>
</svg>
