<svg width="216" height="216" viewBox="0 0 216 216" fill="none" xmlns="http://www.w3.org/2000/svg">
<path d="M203.331 51.624C188.203 25.056 162.485 8.424 133.525 3.456C125.312 1.08 116.883 0 108.023 0C98.5133 0 89.4363 1.296 80.5754 3.888C71.7145 6.264 63.2859 9.72 55.0733 14.472C46.8608 19.224 39.5127 25.056 33.2453 31.752C26.7617 38.232 21.1426 45.576 16.388 54C11.4172 62.64 7.95932 71.928 5.58201 81.216C-3.495 108.432 -1.76604 138.24 12.7139 163.944C26.7617 188.568 49.8865 204.768 76.0369 210.816C85.9784 214.272 96.7844 216 107.806 216C117.316 216 126.393 214.704 135.254 212.112C144.114 209.736 152.543 206.28 160.756 201.528C168.968 196.776 176.316 190.944 182.584 184.248C189.067 177.768 194.686 170.424 199.441 162C204.412 153.144 208.086 143.64 210.247 134.136C219.54 107.136 217.811 77.112 203.331 51.624ZM189.932 128.952C188.203 136.512 185.177 144.072 181.287 151.2C177.397 157.896 172.858 163.944 167.671 169.128C162.701 174.312 156.866 179.064 150.166 182.952C143.682 186.84 136.766 189.648 129.634 191.592C122.935 193.32 115.587 194.4 108.023 194.4C99.1617 194.4 90.5169 192.888 82.5205 190.296C61.5569 185.328 42.9706 172.368 31.7324 152.712C20.062 132.192 18.7653 108.432 25.8972 86.616C27.6262 79.056 30.4357 71.712 34.542 64.8C38.4321 58.104 42.9706 52.056 48.1575 46.872C53.1283 41.688 58.9635 36.936 65.6632 33.048C72.1468 29.16 79.0626 26.352 86.1945 24.408C93.1103 22.68 100.458 21.6 108.023 21.6C115.154 21.6 122.07 22.464 128.554 24.192C151.679 28.08 172.21 41.472 184.313 62.856C195.983 83.376 197.28 107.136 189.932 128.952Z" fill="black"/>
<path d="M123.367 45.1441C118.397 43.8481 113.21 43.2001 108.023 43.2001C102.404 43.2001 96.7848 44.0641 91.5979 45.5761C86.411 46.8721 81.2242 49.0321 76.2534 52.0561C71.2827 54.8641 66.9603 58.5361 63.0702 62.4241C59.18 66.3121 55.7221 70.8481 52.9125 75.8161C49.8869 81.0001 47.7257 86.6161 46.429 92.2321C41.026 108.432 42.1066 126.36 50.7514 141.696C59.18 156.384 73.0116 166.104 88.7883 169.776C94.8397 171.72 101.323 172.8 107.807 172.8C113.426 172.8 119.045 171.936 124.232 170.424C129.419 169.128 134.606 166.968 139.576 163.944C144.547 161.136 148.869 157.464 152.76 153.576C156.65 149.688 160.108 145.152 162.917 140.184C165.943 134.784 168.104 129.168 169.401 123.552C174.804 107.352 173.723 89.4241 165.078 73.8721C156.218 58.1041 140.657 48.1681 123.367 45.1441ZM149.086 118.368C148.221 122.256 146.708 125.928 144.763 129.6C142.818 133.056 140.657 135.864 138.064 138.456C135.47 141.048 132.661 143.424 129.419 145.368C126.177 147.312 122.719 148.608 119.261 149.688C115.371 150.768 111.697 151.2 108.023 151.2C103.484 151.2 99.3782 150.552 95.2719 149.04C84.6821 146.664 75.389 140.184 69.986 130.248C64.1508 120.096 63.5024 108 67.1764 97.2001C68.0409 93.5281 69.5537 89.8561 71.4988 86.1841C73.4439 82.9441 75.6051 79.9201 78.1985 77.3281C80.7919 74.7361 83.6015 72.3601 86.8433 70.4161C90.0851 68.4721 93.543 67.1761 97.0009 66.0961C100.459 65.0161 104.133 64.5841 108.023 64.5841C111.481 64.5841 114.939 65.0161 118.181 65.8801C129.635 67.8241 140.009 74.5201 146.06 85.1041C151.895 95.6881 152.544 107.568 149.086 118.368Z" fill="black"/>
<path d="M112.994 87.048C111.481 86.616 109.752 86.4 108.023 86.4C106.078 86.4 104.349 86.616 102.62 87.264C100.891 87.696 99.1619 88.344 97.4329 89.424C95.704 90.288 94.4073 91.584 93.1105 92.88C91.8138 94.176 90.7332 95.688 89.6526 97.416C88.572 99.144 87.9237 101.088 87.4914 102.816C85.7625 108.216 85.9786 114.264 89.0043 119.448C91.8138 124.416 96.3523 127.656 101.755 128.736C103.7 129.384 105.862 129.816 108.023 129.816C109.968 129.816 111.697 129.6 113.426 128.952C115.155 128.52 116.884 127.872 118.613 126.792C120.342 125.928 121.638 124.632 122.935 123.336C124.232 122.04 125.312 120.528 126.393 118.8C127.474 117.072 128.122 115.128 128.554 113.184C130.499 107.784 130.067 101.736 127.257 96.768C124.016 91.368 118.829 88.128 112.994 87.048Z" fill="black"/>
</svg>
