<svg width="100" height="100" viewBox="0 0 100 100" fill="none" xmlns="http://www.w3.org/2000/svg">
<path fill-rule="evenodd" clip-rule="evenodd" d="M61.8318 1.53897C75.1842 3.81976 87.1434 11.5379 94.1161 23.866C100.829 35.7355 101.606 49.5544 97.4231 62.1189C96.3879 66.5378 94.7206 70.8736 92.3867 75C90.1948 78.8754 87.5522 82.3235 84.562 85.317C81.6301 88.3681 78.2533 91.0646 74.4581 93.3013C70.6627 95.5381 66.6864 97.1752 62.6316 98.2415C58.5971 99.388 54.3508 100 49.9673 100C44.8216 100 39.865 99.1566 35.2179 97.5953C23.067 94.7405 12.3387 87.2787 5.88385 75.866C-0.826125 64.0024 -1.60528 50.1911 2.57073 37.6316C3.60985 33.299 5.25807 29.0487 7.54797 25C9.73914 21.1259 12.3806 17.6789 15.3696 14.6861C18.3022 11.6337 21.68 8.93619 25.4765 6.69873C29.2726 4.46149 33.2496 2.82428 37.3051 1.75793C41.339 0.611816 45.5846 0 49.9673 0C54.0622 0 58.0372 0.534058 61.8318 1.53897ZM59.4655 11.2312C70.1474 13.0558 79.7148 19.2303 85.2929 29.0928C90.6635 38.5884 91.2848 49.6436 87.9385 59.6951C87.1103 63.2303 85.7765 66.6989 83.9094 70C82.1559 73.1003 80.0418 75.8588 77.6496 78.2536C75.3041 80.6945 72.6027 82.8517 69.5665 84.641C66.5302 86.4305 63.3491 87.7401 60.1053 88.5932C56.8777 89.5104 53.4807 90 49.9739 90C45.8573 90 41.892 89.3253 38.1743 88.0763C28.4536 85.7924 19.871 79.8229 14.7071 70.6928C9.3391 61.2019 8.71578 50.1529 12.0566 40.1053C12.8879 36.6392 14.2065 33.239 16.0384 30C17.7913 26.9007 19.9045 24.1431 22.2957 21.7488C24.6418 19.307 27.344 17.149 30.3812 15.359C33.418 13.5692 36.5997 12.2594 39.8441 11.4063C43.0712 10.4895 46.4677 10 49.9739 10C53.2497 10 56.4298 10.4272 59.4655 11.2312ZM57.0991 20.9234C65.1105 22.2919 72.2861 26.9227 76.4697 34.3196C80.4976 41.4413 80.9636 49.7327 78.4539 57.2713C77.8327 59.9227 76.8323 62.5242 75.432 65C74.1169 67.3253 72.5313 69.3941 70.7372 71.1902C68.9781 73.0209 66.952 74.6387 64.6749 75.9808C62.3976 77.3229 60.0118 78.3051 57.579 78.9449C55.1583 79.6328 52.6105 80 49.9804 80C46.893 80 43.919 79.494 41.1307 78.5572C33.8402 76.8443 27.4032 72.3672 23.5303 65.5196C19.5043 58.4014 19.0368 50.1147 21.5424 42.579C22.1659 39.9794 23.1548 37.4292 24.5288 35C25.8435 32.6756 27.4284 30.6074 29.2218 28.8116C30.9813 26.9802 33.008 25.3617 35.2859 24.0192C37.5635 22.6769 39.9498 21.6946 42.383 21.0548C44.8034 20.3671 47.3508 20 49.9804 20C52.4373 20 54.8223 20.3204 57.0991 20.9234ZM54.7327 30.6156C60.0737 31.5279 64.8574 34.6151 67.6465 39.5464C70.3318 44.2942 70.6424 49.8218 68.9693 54.8476C68.5551 56.6151 67.8882 58.3495 66.9547 60C66.0779 61.5502 65.0209 62.9294 63.8248 64.1268C62.652 65.3473 61.3013 66.4258 59.7833 67.3205C58.2651 68.2152 56.6746 68.8701 55.0526 69.2966C53.4388 69.7552 51.7403 70 49.9869 70C47.9286 70 45.946 69.6627 44.0872 69.0381C39.2268 67.8962 34.9355 64.9115 32.3535 60.3464C29.6696 55.601 29.3579 50.0764 31.0283 45.0526C31.4439 43.3196 32.1032 41.6195 33.0192 40C33.8957 38.4504 34.9523 37.0716 36.1478 35.8744C37.3209 34.6535 38.672 33.5745 40.1906 32.6795C41.709 31.7846 43.2998 31.1297 44.922 30.7032C46.5356 30.2447 48.2339 30 49.9869 30C51.6249 30 53.2149 30.2136 54.7327 30.6156Z" fill="black"/>
</svg>
