<svg width="100" height="100" viewBox="0 0 100 100" fill="none" xmlns="http://www.w3.org/2000/svg">
<path d="M94.0828 23.9C87.0828 11.6 75.1828 3.9 61.7828 1.6C57.9828 0.5 54.0828 0 49.9828 0C45.5828 0 41.3828 0.6 37.2828 1.8C33.1828 2.9 29.2828 4.5 25.4828 6.7C21.6828 8.9 18.2828 11.6 15.3828 14.7C12.3828 17.7 9.78284 21.1 7.58284 25C5.28284 29 3.68284 33.3 2.58284 37.6C-1.61716 50.2 -0.817161 64 5.88284 75.9C12.3828 87.3 23.0828 94.8 35.1828 97.6C39.7828 99.2 44.7828 100 49.8828 100C54.2828 100 58.4828 99.4 62.5828 98.2C66.6828 97.1 70.5828 95.5 74.3828 93.3C78.1828 91.1 81.5828 88.4 84.4828 85.3C87.4828 82.3 90.0828 78.9 92.2828 75C94.5828 70.9 96.2828 66.5 97.2828 62.1C101.583 49.6 100.783 35.7 94.0828 23.9ZM87.8828 59.7C87.0828 63.2 85.6828 66.7 83.8828 70C82.0828 73.1 79.9828 75.9 77.5828 78.3C75.2828 80.7 72.5828 82.9 69.4828 84.7C66.4828 86.5 63.2828 87.8 59.9828 88.7C56.8828 89.5 53.4828 90 49.9828 90C45.8828 90 41.8828 89.3 38.1828 88.1C28.4828 85.8 19.8828 79.8 14.6828 70.7C9.28284 61.2 8.68284 50.2 11.9828 40.1C12.7828 36.6 14.0828 33.2 15.9828 30C17.7828 26.9 19.8828 24.1 22.2828 21.7C24.5828 19.3 27.2828 17.1 30.3828 15.3C33.3828 13.5 36.5828 12.2 39.8828 11.3C43.0828 10.5 46.4828 10 49.9828 10C53.2828 10 56.4828 10.4 59.4828 11.2C70.1828 13 79.6828 19.2 85.2828 29.1C90.6828 38.6 91.2828 49.6 87.8828 59.7Z" fill="black"/>
<path d="M57.0829 20.9C54.7829 20.3 52.3829 20 49.9829 20C47.3829 20 44.7829 20.4 42.3829 21.1C39.9829 21.7 37.5829 22.7 35.2829 24.1C32.9829 25.4 30.9829 27.1 29.1829 28.9C27.3829 30.7 25.7829 32.8 24.4829 35.1C23.0829 37.5 22.0829 40.1 21.4829 42.7C18.9829 50.2 19.4829 58.5 23.4829 65.6C27.3829 72.4 33.7829 76.9 41.0829 78.6C43.8829 79.5 46.8829 80 49.8829 80C52.4829 80 55.0829 79.6 57.4829 78.9C59.8829 78.3 62.2829 77.3 64.5829 75.9C66.8829 74.6 68.8829 72.9 70.6829 71.1C72.4829 69.3 74.0829 67.2 75.3829 64.9C76.7829 62.4 77.7829 59.8 78.3829 57.2C80.8829 49.7 80.3829 41.4 76.3829 34.2C72.2829 26.9 65.0829 22.3 57.0829 20.9ZM68.9829 54.8C68.5829 56.6 67.8829 58.3 66.9829 60C66.0829 61.6 65.0829 62.9 63.8829 64.1C62.6829 65.3 61.3829 66.4 59.8829 67.3C58.3829 68.2 56.7829 68.8 55.1829 69.3C53.3829 69.8 51.6829 70 49.9829 70C47.8829 70 45.9829 69.7 44.0829 69C39.1829 67.9 34.8829 64.9 32.3829 60.3C29.6829 55.6 29.3829 50 31.0829 45C31.4829 43.3 32.1829 41.6 33.0829 39.9C33.9829 38.4 34.9829 37 36.1829 35.8C37.3829 34.6 38.6829 33.5 40.1829 32.6C41.6829 31.7 43.2829 31.1 44.8829 30.6C46.4829 30.1 48.1829 29.9 49.9829 29.9C51.5829 29.9 53.1829 30.1 54.6829 30.5C59.9829 31.4 64.7829 34.5 67.5829 39.4C70.2829 44.3 70.5829 49.8 68.9829 54.8Z" fill="black"/>
<path d="M52.2828 40.3C51.5828 40.1 50.7828 40 49.9828 40C49.0828 40 48.2828 40.1 47.4828 40.4C46.6828 40.6 45.8828 40.9 45.0828 41.4C44.2828 41.8 43.6828 42.4 43.0828 43C42.4828 43.6 41.9828 44.3 41.4828 45.1C40.9828 45.9 40.6828 46.8 40.4828 47.6C39.6828 50.1 39.7828 52.9 41.1828 55.3C42.4828 57.6 44.5828 59.1 47.0828 59.6C47.9828 59.9 48.9828 60.1 49.9828 60.1C50.8828 60.1 51.6828 60 52.4828 59.7C53.2828 59.5 54.0828 59.2 54.8828 58.7C55.6828 58.3 56.2828 57.7 56.8828 57.1C57.4828 56.5 57.9828 55.8 58.4828 55C58.9828 54.2 59.2828 53.3 59.4828 52.4C60.3828 49.9 60.1828 47.1 58.8828 44.8C57.3828 42.3 54.9828 40.8 52.2828 40.3Z" fill="black"/>
</svg>
