<svg width="100" height="100" viewBox="0 0 100 100" fill="none" xmlns="http://www.w3.org/2000/svg">
<path d="M61.8318 1.53897C75.1842 3.81976 87.1434 11.5379 94.1161 23.866C100.829 35.7355 101.606 49.5545 97.4231 62.1189C96.3879 66.5378 94.7206 70.8736 92.3867 75C90.1948 78.8754 87.5522 82.3235 84.562 85.317C81.6301 88.3681 78.2533 91.0646 74.4581 93.3013C70.6627 95.5381 66.6864 97.1752 62.6316 98.2415C58.5971 99.388 54.3508 100 49.9674 100C44.8216 100 39.865 99.1566 35.2179 97.5953C23.067 94.7405 12.3387 87.2786 5.88385 75.866C-0.826123 64.0024 -1.60528 50.1911 2.57072 37.6316C3.60985 33.299 5.25807 29.0487 7.54798 25C9.73913 21.1259 12.3807 17.6789 15.3696 14.6861C18.3022 11.6337 21.68 8.93619 25.4765 6.69873C29.2726 4.46148 33.2496 2.82427 37.3051 1.75793C41.339 0.611818 45.5846 0 49.9674 0C54.0622 0 58.0372 0.534064 61.8318 1.53897Z" fill="black"/>
</svg>
