<svg width="100" height="100" viewBox="0 0 100 100" fill="none" xmlns="http://www.w3.org/2000/svg">
<path d="M49 1C49 0.447716 49.4477 0 50 0C50.5523 0 51 0.447716 51 1V38.0411C52.6302 38.1756 54.1681 38.6359 55.5482 39.3569L76.7679 2.60323C77.0441 2.12494 77.6557 1.96107 78.134 2.23721C78.6123 2.51335 78.7762 3.12494 78.5 3.60323L57.2389 40.4285C58.4116 41.3168 59.4159 42.4156 60.1957 43.6686L96.3968 22.7679C96.8751 22.4918 97.4867 22.6557 97.7628 23.134C98.0389 23.6123 97.8751 24.2239 97.3968 24.5L61.1079 45.4514C61.5627 46.5608 61.8561 47.7534 61.9589 49H99C99.5523 49 100 49.4477 100 50C100 50.5523 99.5523 51 99 51H61.9589C61.8244 52.6302 61.3641 54.1681 60.6431 55.5482L97.3968 76.7679C97.8751 77.0441 98.0389 77.6557 97.7628 78.134C97.4867 78.6123 96.8751 78.7761 96.3968 78.5L59.5715 57.2389C58.8577 58.1813 58.0079 59.015 57.0514 59.7107L78.2321 96.3968C78.5082 96.8751 78.3443 97.4866 77.866 97.7628C77.3877 98.0389 76.7762 97.8751 76.5 97.3968L55.3412 60.7487C54.0149 61.409 52.5492 61.8311 51 61.9589V99C51 99.5523 50.5523 100 50 100C49.4477 100 49 99.5523 49 99V61.9589C47.7074 61.8523 46.4729 61.5408 45.3291 61.057L24.5 97.134C24.2239 97.6123 23.6123 97.7761 23.134 97.5C22.6557 97.2239 22.4918 96.6123 22.7679 96.134L43.5574 60.1256C42.3878 59.3799 41.3561 58.4372 40.5091 57.3441L3.86603 78.5C3.38773 78.7761 2.77614 78.6123 2.5 78.134C2.22386 77.6557 2.38773 77.0441 2.86603 76.7679L39.4184 55.6644C38.6621 54.2546 38.1794 52.6761 38.0411 51H1C0.447708 51 0 50.5523 0 50C0 49.4477 0.447708 49 1 49H38.0411C38.1477 47.7074 38.4592 46.4729 38.943 45.3291L2.86603 24.5C2.38773 24.2239 2.22386 23.6123 2.5 23.134C2.77614 22.6557 3.38773 22.4918 3.86603 22.7679L39.8744 43.5574C40.7764 42.1427 41.9667 40.9297 43.3626 40.0012L22.5 3.86603C22.2239 3.38773 22.3877 2.77615 22.866 2.5C23.3443 2.22385 23.9559 2.38773 24.2321 2.86603L45.1149 39.0361C46.3183 38.4991 47.6263 38.1544 49 38.0411V1Z" fill="black"/>
</svg>
