<svg width="100" height="100" viewBox="0 0 100 100" fill="none" xmlns="http://www.w3.org/2000/svg">
<path d="M49 1C49 0.447716 49.4477 0 50 0C50.5523 0 51 0.447716 51 1V38.0411C52.5367 38.1678 53.9912 38.5842 55.309 39.2353L73.7679 7.26349C74.0441 6.78519 74.6557 6.62132 75.134 6.89746C75.6123 7.17361 75.7761 7.78519 75.5 8.26349L57.0222 40.2681C58.1264 41.0663 59.0895 42.0478 59.8666 43.168L91.7365 24.7679C92.2148 24.4918 92.8264 24.6557 93.1025 25.134C93.3787 25.6123 93.2148 26.2239 92.7365 26.5L60.8657 44.9006C61.459 46.1624 61.8388 47.5444 61.9589 49H99C99.5523 49 100 49.4477 100 50C100 50.5523 99.5523 51 99 51H61.9589C61.8322 52.5367 61.4158 53.9912 60.7647 55.309L92.7365 73.7679C93.2148 74.0441 93.3787 74.6557 93.1025 75.134C92.8264 75.6123 92.2148 75.7761 91.7365 75.5L59.7319 57.0222C58.9337 58.1264 57.9522 59.0895 56.832 59.8666L75.2321 91.7365C75.5082 92.2148 75.3443 92.8264 74.866 93.1025C74.3877 93.3787 73.7761 93.2148 73.5 92.7365L55.0994 60.8657C53.8376 61.459 52.4556 61.8388 51 61.9589V99C51 99.5523 50.5523 100 50 100C49.4477 100 49 99.5523 49 99V61.9589C47.6138 61.8446 46.2944 61.4946 45.0819 60.9491L26.5 93.134C26.2239 93.6123 25.6123 93.7761 25.134 93.5C24.6557 93.2239 24.4918 92.6123 24.7679 92.134L43.3327 59.9789C42.0885 59.1459 41.0087 58.0864 40.1525 56.8594L7.86603 75.5C7.38773 75.7761 6.77615 75.6123 6.5 75.134C6.22385 74.6557 6.38773 74.0441 6.86603 73.7679L39.1485 55.1296C38.5471 53.8597 38.1621 52.4673 38.0411 51H1C0.447716 51 0 50.5523 0 50C0 49.4477 0.447716 49 1 49H38.0411C38.1554 47.6138 38.5054 46.2944 39.0509 45.0819L6.86603 26.5C6.38773 26.2239 6.22385 25.6123 6.5 25.134C6.77615 24.6557 7.38773 24.4918 7.86603 24.7679L40.0211 43.3327C40.8541 42.0885 41.9136 41.0088 43.1406 40.1525L24.5 7.86603C24.2239 7.38773 24.3877 6.77615 24.866 6.5C25.3443 6.22385 25.9559 6.38773 26.2321 6.86603L44.8704 39.1485C46.1403 38.5471 47.5327 38.1621 49 38.0411V1Z" fill="black"/>
</svg>
