<svg width="144" height="144" viewBox="0 0 144 144" fill="none" xmlns="http://www.w3.org/2000/svg">
<path d="M135.554 34.416C125.469 16.704 108.323 5.616 89.0164 2.304C83.5414 0.72 77.9223 0 72.015 0C65.6755 0 59.6242 0.864 53.7169 2.592C47.8097 4.176 42.1906 6.48 36.7155 9.648C31.2405 12.816 26.3418 16.704 22.1635 21.168C17.8411 25.488 14.0951 30.384 10.9253 36C7.61149 41.76 5.30622 47.952 3.72134 54.144C-2.33 72.288 -1.17736 92.16 8.47597 109.296C17.8411 125.712 33.2576 136.512 50.6913 140.544C57.3189 142.848 64.5229 144 71.871 144C78.2105 144 84.2618 143.136 90.169 141.408C96.0763 139.824 101.695 137.52 107.17 134.352C112.645 131.184 117.544 127.296 121.722 122.832C126.045 118.512 129.791 113.616 132.961 108C136.275 102.096 138.724 95.76 140.165 89.424C146.36 71.424 145.207 51.408 135.554 34.416ZM126.621 85.968C125.469 91.008 123.451 96.048 120.858 100.8C118.265 105.264 115.239 109.296 111.781 112.752C108.467 116.208 104.577 119.376 100.111 121.968C95.7882 124.56 91.1776 126.432 86.423 127.728C81.9565 128.88 77.0578 129.6 72.015 129.6C66.1078 129.6 60.3446 128.592 55.0136 126.864C41.0379 123.552 28.6471 114.912 21.155 101.808C13.3747 88.128 12.5102 72.288 17.2648 57.744C18.4175 52.704 20.2905 47.808 23.028 43.2C25.6214 38.736 28.6471 34.704 32.105 31.248C35.4188 27.792 39.309 24.624 43.7754 22.032C48.0978 19.44 52.7084 17.568 57.463 16.272C62.0735 15.12 66.9722 14.4 72.015 14.4C76.7697 14.4 81.3802 14.976 85.7026 16.128C101.119 18.72 114.807 27.648 122.875 41.904C130.655 55.584 131.52 71.424 126.621 85.968Z" fill="black"/>
<path d="M82.245 30.096C78.9311 29.232 75.4732 28.8 72.0153 28.8C68.2692 28.8 64.5232 29.376 61.0653 30.384C57.6074 31.248 54.1494 32.688 50.8356 34.704C47.5218 36.576 44.6402 39.024 42.0468 41.616C39.4533 44.208 37.1481 47.232 35.275 50.544C33.2579 54 31.8171 57.7441 30.9526 61.4881C27.3507 72.2881 28.0711 84.24 33.8342 94.464C39.4533 104.256 48.6744 110.736 59.1922 113.184C63.2265 114.48 67.5488 115.2 71.8712 115.2C75.6173 115.2 79.3634 114.624 82.8213 113.616C86.2792 112.752 89.7371 111.312 93.0509 109.296C96.3647 107.424 99.2463 104.976 101.84 102.384C104.433 99.792 106.738 96.7681 108.612 93.4561C110.629 89.8561 112.069 86.1121 112.934 82.3681C116.536 71.5681 115.815 59.6161 110.052 49.2481C104.145 38.7361 93.7713 32.112 82.245 30.096ZM99.3904 78.912C98.8141 81.504 97.8055 83.9521 96.5088 86.4001C95.2121 88.7041 93.7713 90.576 92.0424 92.304C90.3134 94.032 88.4404 95.6161 86.2792 96.9121C84.118 98.2081 81.8127 99.0721 79.5074 99.7921C76.914 100.512 74.4647 100.8 72.0153 100.8C68.9896 100.8 66.2521 100.368 63.5146 99.3601C56.4547 97.7761 50.2593 93.4561 46.6573 86.8321C42.7672 80.0641 42.3349 72.0001 44.7843 64.8001C45.3606 62.3521 46.3692 59.9041 47.6659 57.4561C48.9626 55.2961 50.4034 53.28 52.1323 51.552C53.8613 49.824 55.7343 48.24 57.8955 46.944C60.0567 45.648 62.362 44.7841 64.6673 44.064C66.9725 43.344 69.4219 43.056 72.0153 43.056C74.3206 43.056 76.6259 43.344 78.787 43.92C86.4233 45.216 93.3391 49.6801 97.3733 56.7361C101.263 63.7921 101.696 71.712 99.3904 78.912Z" fill="black"/>
<path d="M75.329 58.032C74.3205 57.744 73.1678 57.6 72.0152 57.6C70.7185 57.6 69.5658 57.744 68.4132 58.176C67.2606 58.464 66.1079 58.896 64.9553 59.616C63.8027 60.192 62.9382 61.056 62.0737 61.92C61.2092 62.784 60.4888 63.792 59.7684 64.944C59.048 66.096 58.6158 67.392 58.3276 68.544C57.175 72.144 57.3191 76.176 59.3362 79.632C61.2092 82.944 64.2349 85.104 67.8369 85.824C69.1336 86.256 70.5744 86.544 72.0152 86.544C73.3119 86.544 74.4645 86.4 75.6172 85.968C76.7698 85.68 77.9224 85.248 79.0751 84.528C80.2277 83.952 81.0922 83.088 81.9567 82.224C82.8212 81.36 83.5415 80.352 84.2619 79.2C84.9823 78.048 85.4146 76.752 85.7027 75.456C86.9995 71.856 86.7113 67.824 84.8383 64.512C82.6771 60.912 79.2192 58.752 75.329 58.032Z" fill="black"/>
</svg>
