<svg width="102" height="101" viewBox="0 0 102 101" fill="none" xmlns="http://www.w3.org/2000/svg">
<path d="M34.0316 18.6472C26.9307 26.2473 19.8817 33.7922 12.1094 41.0708C11.306 41.8506 10.346 42.8315 9.33528 43.8645C6.06941 47.2021 2.27302 51.082 1.50935 50.4709C0.509352 49.6709 0.909499 47.9709 2.10945 46.8708C2.8094 46.271 24.2095 25.3708 33.7095 14.771C37.7095 10.271 45.2095 2.771 46.2095 1.771C47.1095 0.87085 48.3094 0.170898 50.6095 0.170898C52.4095 0.170898 54.7095 1.771 56.0094 3.37085C56.7264 4.25317 59.9676 7.56836 63.6197 11.3042C66.5902 14.3425 69.8324 17.6592 72.2095 20.1709C73.5096 21.5708 74.9095 22.8708 76.3094 24.1709C77.8595 25.8147 79.5196 27.3923 81.1866 28.9766C83.0689 30.7651 84.9595 32.5618 86.7095 34.4709C88.7281 36.6335 90.8851 38.6577 93.0365 40.6765C95.3616 42.8582 97.68 45.0334 99.8094 47.3708C100.91 48.5708 101.509 50.271 100.509 51.0708C99.7454 51.6819 96.3555 48.208 93.46 45.2412C92.5653 44.3242 91.7176 43.4556 91.0094 42.771C84.8111 36.8391 78.7462 30.7742 72.6959 24.7241C69.6683 21.6965 66.6444 18.6726 63.6095 15.6709C62.6927 14.7542 61.7982 13.8762 60.9205 13.0149C58.064 10.2114 55.3868 7.5835 52.7095 4.37085C50.9095 2.1709 49.6095 2.37085 47.5094 4.47095C42.8731 9.18384 38.4425 13.9263 34.0316 18.6472Z" fill="black"/>
<path d="M84.0484 81.1521C84.6231 81.6494 85.1041 82.0654 85.9095 82.8708C86.1402 83.1016 87.004 83.9814 88.2003 85.2C92.1903 89.2637 99.8785 97.094 100.109 97.1709C100.809 97.8708 101.509 98.8708 100.609 99.771C99.7542 100.626 98.9893 99.8562 98.3148 99.177L98.2093 99.071C97.3209 98.2292 95.7979 96.7532 94.275 95.2771C92.5416 93.5967 90.8079 91.9163 90.0094 91.1709C89.3294 90.491 85.5345 86.814 80.8944 82.3181C75.9823 77.5588 70.1231 71.8818 66.0094 67.8708C61.6095 63.571 57.2093 59.1709 52.9095 54.771C51.4095 53.271 50.4095 53.4709 49.0094 54.8708C42.1051 61.8252 35.1759 68.7544 28.2467 75.6836C21.326 82.6045 14.4051 89.5251 7.50935 96.4709C4.10945 100.071 1.8094 100.271 1.10945 99.571C0.509352 98.9709 2.4095 96.9709 2.4095 96.9709C2.4095 96.9709 14.9095 84.8708 21.0094 78.771C30.2093 69.571 39.3094 60.271 48.4095 50.9709C49.9095 49.3708 51.0094 49.1709 52.7093 50.771C59.7093 57.3044 66.5316 64.0156 73.3538 70.7268C76.765 74.0823 80.1761 77.4377 83.6095 80.771C83.7652 80.9072 83.9095 81.032 84.0484 81.1521Z" fill="black"/>
</svg>
