<svg width="100" height="101" viewBox="0 0 100 101" fill="none" xmlns="http://www.w3.org/2000/svg">
<path d="M98.8998 97.3C99.3998 97.8 100.3 98.6 99.8998 99.3C99.3998 100 98.1998 99.7 97.2998 98.9C96.3998 98.2 96.3998 98.2 95.3998 97.2C94.3998 96.2 86.4998 87.8 81.7998 83.3C74.4998 76.2 67.6998 68.8 60.6998 61.4C58.4998 59.1 56.1998 56.8 53.8998 54.6C53.4998 54.2 52.9998 53.7 52.2998 54C51.5998 54.2 51.6998 54.9 51.6998 55.5C51.6998 69 51.8998 96.5 51.8998 97.4C51.8998 98.3 51.8998 100.1 49.8998 100.1C49.0998 100.1 48.4998 98.9 48.5998 97.6C48.6998 96.3 48.7998 86.7 48.8998 84C48.9998 81.3 48.9998 65.2 48.7998 55.8C48.7998 55.2 48.7998 54.5 48.0998 54.3C47.1998 54 46.6998 54.8 46.1998 55.3C39.1998 62.9 31.3998 70 23.9998 77.4C17.6998 83.7 10.9998 90.4 4.69977 96.6C4.09977 97.2 1.69977 100.6 0.599775 99.8C-0.500225 99 0.599775 97.5 1.29977 96.6C1.99977 95.7 19.9998 78.6 27.5998 70.6C32.6998 65.2 38.1998 60.2 43.5998 55C43.7998 54.9 44.5998 54 44.5998 54C44.5998 54 46.4998 52.7 46.1998 51.3C45.9998 50.5 44.6998 50.6 44.6998 50.6H23.2998L18.6998 50.7L8.09978 51C8.09978 51 1.99977 50.9 0.999775 50.9C-0.000225186 50.9 -0.200225 48.9 0.499775 48.4C1.29977 47.9 2.09977 48.2 3.99977 48.2C5.89977 48.2 14.1998 48.4 14.1998 48.4L18.7998 48.5H24.7998C24.7998 48.5 33.4998 48.4 36.0998 48.4C36.0998 48.4 38.2998 48.4 39.0998 48.4C40.8998 48.5 42.7998 48.6 44.5998 48.6C45.2998 48.6 46.2998 48.8 46.4998 47.8C46.7998 46.8 46.3998 46.7 45.1998 45.8C44.0998 44.9 25.6998 26.6 16.3998 17.7C12.4998 13.8 2.09977 4 0.999775 2.9C0.299775 2.2 -0.500225 1.2 0.399775 0.4C1.29977 -0.4 3.89978 2.4 4.79978 3.3C5.69978 4.2 22.6998 21.2 31.8998 29.9C37.0998 34.8 42.0998 39.7 47.2998 44.6C47.7998 45 48.1998 45.8 48.9998 45.4C49.5998 45.1 49.3998 44.3 49.3998 43.8C49.1998 37.8 48.8998 28.8 48.6998 25.8C48.4998 22.8 48.3998 16 48.3998 16L48.1998 12C48.1998 12 48.0998 2.4 48.0998 1.9C48.0998 1.1 48.0998 0 49.0998 0C50.3998 0 50.4998 1 50.5998 2C50.6998 5 50.7998 8.1 50.7998 11.1C50.9998 21.1 51.0998 31.1 51.3998 41.1C51.3998 42.7 50.7998 45.1 52.4998 45.7C53.5998 46.1 54.7998 44.1 55.7998 43C64.8998 33.6 73.8998 24.2 82.8998 14.8C86.8998 10.6 90.8998 6.3 94.9998 2.1C95.7998 1.3 96.8998 -0.4 97.9998 0.7C98.8998 1.5 97.3998 2.7 96.5998 3.6C84.3998 16 72.1998 28.5 59.9998 41C58.4998 42.5 57.0998 44 55.6998 45.6C54.4998 46.9 54.5998 47.9 56.5998 48.1C57.4998 48.2 58.3998 48.4 59.3998 48.4C72.2998 48.9 85.2998 49.6 98.1998 49.4C99.0998 49.4 99.9998 49.5 99.9998 50.6C99.9998 51.7 98.7998 51.8 97.5998 51.8C96.3998 51.8 70.1998 51.2 67.5998 51C64.9998 50.9 60.2998 50.5 58.9998 50.4C57.5998 50.3 56.6998 50 55.5998 50.1C53.5998 50.2 53.6998 50.9 54.8998 52.4C56.0998 53.9 60.9998 58.9 64.0998 62.1C73.3998 71.7 82.6998 81.5 92.2998 90.8C94.4998 92.9 96.7998 95 98.8998 97.3Z" fill="black"/>
</svg>
